<svg width="24" height="24" viewBox="0 0 24 24" fill="none" xmlns="http://www.w3.org/2000/svg">
  <path fill-rule="evenodd" clip-rule="evenodd" d="M3 4.5C3 3.11929 4.11929 2 5.5 2H12C12.2652 2 12.5196 2.10536 12.7071 2.29289L18.7071 8.29289C18.8946 8.48043 19 8.73478 19 9V19.5C19 20.8807 17.8807 22 16.5 22H5.5C4.11929 22 3 20.8807 3 19.5V4.5ZM5.5 4C5.22386 4 5 4.22386 5 4.5V19.5C5 19.7761 5.22386 20 5.5 20H16.5C16.7761 20 17 19.7761 17 19.5V10H13C12.4477 10 12 9.55228 12 9V4H5.5ZM14 4.41421L16.5858 7H14V4.41421Z" fill="currentColor"/>
  <path d="M9 14L10.5 11L12 14" stroke="currentColor" stroke-width="1.5" stroke-linecap="round" stroke-linejoin="round"/>
  <path d="M8.5 14H11.5" stroke="currentColor" stroke-width="1.5" stroke-linecap="round" stroke-linejoin="round"/>
  <path d="M14 11H15" stroke="currentColor" stroke-width="1.5" stroke-linecap="round" stroke-linejoin="round"/>
  <path d="M14 14H15" stroke="currentColor" stroke-width="1.5" stroke-linecap="round" stroke-linejoin="round"/>
</svg> 